# xmcd
#
# Track frame offsets:
#	150
#	15947
#	30355
#	46674
#	60577
#	77446
#	91271
#	102054
#	114970
#	136381
#	149815
#	165557
#	179237
#	193634
#	205547
#	220657
#	236648
#	248011
#	264221
#	277067
#
# Disc length: 3880 seconds
#
# Revision: 1
# Processed by: cddbd v1.5.2PL0 Copyright (c) Steve Scherf et al.
# Submitted via: audiograbber 1.83.01
#
DISCID=050f2614
DTITLE=Velho Milongueiro - As 20 mais
DYEAR=1900
DGENRE=Gaúcha
TTITLE0=Show de bola
TTITLE1=Matuto apaixonado
TTITLE2=Seis namoradas
TTITLE3=Se vai dirigir, não beba
TTITLE4=Manda brasa
TTITLE5=Só tô ficando
TTITLE6=Metendo o pau
TTITLE7=Chupa chimarrão
TTITLE8=É mentira desses louco
TTITLE9=Tô desconfiado
TTITLE10=Por causa dela
TTITLE11=Roubo de prenda
TTITLE12=Baile da cuca
TTITLE13=Cabeça dura
TTITLE14=Sem matear, não vou
TTITLE15=Dá o riquinho pra mim
TTITLE16=Pode chegar
TTITLE17=Sonhando com as meninas
TTITLE18=Mulhezinha valente
TTITLE19=Brincando de rico
EXTD=
EXTT0=
EXTT1=
EXTT2=
EXTT3=
EXTT4=
EXTT5=
EXTT6=
EXTT7=
EXTT8=
EXTT9=
EXTT10=
EXTT11=
EXTT12=
EXTT13=
EXTT14=
EXTT15=
EXTT16=
EXTT17=
EXTT18=
EXTT19=
PLAYORDER=
